<svg xmlns="http://www.w3.org/2000/svg" xmlns:xlink="http://www.w3.org/1999/xlink" version="1.1" x="0px" y="0px" viewBox="0 0 100 100" enable-background="new 0 0 100 100" xml:space="preserve"><path d="M85.829,43.61c-2.109-0.41-5.03-1.59-5.03-2.72c0-2.59-4-6.43-9.52-6.43c-9.42,0-13.11,8.35-14.3,12.18  c-5.681-6.39-11.89-9.43-17.92-12.37c-7.3-3.57-14.2-6.94-19.35-16.1l-1.48-2.62l-0.34,2.99c-0.93,8.27-0.19,17.13,2.05,24.33  c2.36,7.57,6.31,13.21,11.53,16.54c-5.58,0.609-14.35,3.18-20.48,8.729l-0.24,0.23l-0.06,0.32c-0.77,4.279,3.01,15.09,7.37,16.829  l0.6,0.24l0.46-0.47c2.14-2.22,8.38-7.99,11.87-8.51c6.06,1.93,11.51,2.91,16.22,2.91c15.81,0,20.3-11,21.57-17.57  c2.13-11.42,17.02-16.58,17.17-16.63l3.46-1.17L85.829,43.61z"></path><path d="M55.311,42.032c-3.752-3.41-7.602-5.678-11.163-7.524c-0.039-4.013,1.523-8.109,3.558-11.28  c0.178,6.427,2.149,9.527,4.624,12.625C53.707,37.577,54.861,39.021,55.311,42.032z"></path></svg>